# xmcd
#
# Track frame offsets: 
#        150
#        19999
#        34459
#        46890
#        61701
#        77401
#        100229
#        114033
#        129111
#        145890
#        159984
#
# Disc length: 2319 seconds
#
# Revision: 0
# Processed by: cddbd v1.5.2PL0 Copyright (c) Steve Scherf et al.
# Submitted via: ExactAudioCopy v1.0b6
#
DISCID=7d090d0b
DTITLE=JPK Band - Bamboozle
DYEAR=1900
DGENRE=Blues
TTITLE0=Bamboozle
TTITLE1=Crush On You
TTITLE2=Lost My Mind
TTITLE3=She Left Me
TTITLE4=Missed My Chance
TTITLE5=My Dream
TTITLE6=Little Secret
TTITLE7=Nightingale
TTITLE8=Franky Be Goode
TTITLE9=Diaper Blues
TTITLE10=Mind Set On You
EXTD=
EXTT0=
EXTT1=
EXTT2=
EXTT3=
EXTT4=
EXTT5=
EXTT6=
EXTT7=
EXTT8=
EXTT9=
EXTT10=
PLAYORDER=
